<?xml version="1.0" encoding="UTF-8"?>
<svg width="1200" height="630" viewBox="0 0 1200 630" fill="none" xmlns="http://www.w3.org/2000/svg">
  <rect width="1200" height="630" fill="#0b0b12"/>
  <rect width="1200" height="4" fill="url(#bar)"/>
  <g transform="translate(540, 180) scale(2)">
    <path d="M30.28 22.93c1.63 0 2.96-1.31 2.96-2.93s-1.33-2.93-2.96-2.93-2.96 1.31-2.96 2.93 1.33 2.93 2.96 2.93z" fill="url(#s0)"/>
    <path d="M.38 25.54c1.04 4.81 4.17 9.08 8.31 11.76.17.1.58.36.75.46.24.13.53.3.78.42.51.26 1.09.52 1.62.73.27.1.57.2.85.3.21.07.65.18.86.25.97.25 1.96.42 2.96.5 5.32.39 10.36-1.82 14.31-5.23 3.06-2.61 5.3-6.16 6.43-9.98.45-1.53.99-3.12.84-4.74-.06-.64-.52-1.2-1.2-1.24-.6-.03-1.12.35-1.29.89-.16.47-.33.93-.52 1.39-.01 0-.01.01-.01.01-1.01 2.36-2.58 4.58-4.95 5.6-1.29.58-2.72.86-4.11.84-1.58-.03-2.71-.72-3.88-1.78-2.52-2.16-3.66-5.76-3.63-9 .01-.35-.5-.45-.62-.11-.58 1.72-.73 3.59-.55 5.4.22 2.12.97 4.19 2.25 5.92.34.47.68.9 1.09 1.35-.06-.01-.1-.01-.16-.02-.37-.06-.77-.12-1.14-.2-.89-.18-1.78-.44-2.63-.76-1.13-.43-2.22-.99-3.23-1.67-.69-.46-1.34-.99-1.94-1.55-1.47-1.4-2.71-3.1-3.48-4.98-.07-.18-.18-.42-.24-.6l-.15-.41-.13-.42c-.6-1.99-.79-4.11-.51-6.17.24-1.87.85-3.68 1.73-5.36.08-.15.02-.34-.14-.42-.12-.06-.27-.04-.37.05-1.08 1.07-2.01 2.35-2.73 3.72-1.77 3.35-2.17 7.32-1.38 11z" fill="url(#s1)"/>
    <path d="M60.17 14.46c-1.04-4.81-4.17-9.08-8.31-11.76-.17-.1-.58-.36-.75-.46-.24-.13-.53-.3-.78-.42-.51-.26-1.09-.52-1.62-.73-.27-.1-.57-.2-.85-.3-.21-.07-.65-.18-.86-.25-.97-.25-1.96-.42-2.96-.5C38.73-.35 33.69 1.81 29.74 5.22c-3.06 2.61-5.3 6.16-6.43 9.98-.45 1.53-.99 3.12-.84 4.74.06.64.52 1.2 1.2 1.24.6.03 1.12-.35 1.29-.89.16-.47.33-.93.52-1.39.01 0 .01-.01.01-.01 1.01-2.36 2.58-4.58 4.95-5.6 1.29-.58 2.72-.86 4.11-.84 1.58.03 2.71.72 3.88 1.78 2.52 2.16 3.66 5.76 3.63 9-.01.35.5.45.62.11.58-1.72.73-3.59.55-5.4-.22-2.12-.97-4.19-2.25-5.92-.34-.47-.68-.9-1.09-1.35.06.01.1.01.16.02.37.06.77.12 1.14.2.89.18 1.78.44 2.63.76 1.13.43 2.22.99 3.23 1.67.69.46 1.34.99 1.94 1.55 1.47 1.4 2.71 3.1 3.48 4.98.07.18.18.42.24.6l.15.41.13.42c.6 1.99.79 4.11.51 6.17-.24 1.87-.85 3.68-1.73 5.36-.08.15-.02.34.14.42.12.06.27.04.37-.05 1.08-1.07 2.01-2.35 2.73-3.72 1.77-3.35 2.17-7.32 1.38-11z" fill="url(#s2)"/>
  </g>
  <text x="600" y="360" text-anchor="middle" font-family="sans-serif" font-size="56" font-weight="800" fill="#e8edf5">Prime Chain</text>
  <text x="600" y="420" text-anchor="middle" font-family="sans-serif" font-size="24" fill="#94a3b8">High-performance EVM blockchain with native order matching</text>
  <text x="600" y="520" text-anchor="middle" font-family="monospace" font-size="18" fill="#00FFF9">Chain ID: 7919  |  Block Time: 1s  |  DPoS Consensus</text>
  <rect y="626" width="1200" height="4" fill="url(#bar)"/>
  <defs>
    <linearGradient id="bar" x1="0" y1="0" x2="1200" y2="0" gradientUnits="userSpaceOnUse"><stop stop-color="#4901FF"/><stop offset="1" stop-color="#00FFF9"/></linearGradient>
    <linearGradient id="s0" x1="26.6" y1="20.1" x2="34.2" y2="19.9" gradientUnits="userSpaceOnUse"><stop stop-color="#4901FF"/><stop offset="1" stop-color="#00FFF9"/></linearGradient>
    <linearGradient id="s1" x1="38.1" y1="25.4" x2="0" y2="25.4" gradientUnits="userSpaceOnUse"><stop stop-color="#4901FF"/><stop offset="1" stop-color="#00FFF9"/></linearGradient>
    <linearGradient id="s2" x1="22.4" y1="14.6" x2="60.6" y2="14.6" gradientUnits="userSpaceOnUse"><stop stop-color="#4901FF"/><stop offset="1" stop-color="#00FFF9"/></linearGradient>
  </defs>
</svg>
